<svg id="visual" viewBox="0 0 900 100" width="900" height="100" xmlns="http://www.w3.org/2000/svg" xmlns:xlink="http://www.w3.org/1999/xlink" version="1.1"><path d="M0 73L21.5 74.5C43 76 86 79 128.8 79.5C171.7 80 214.3 78 257.2 76.5C300 75 343 74 385.8 73.5C428.7 73 471.3 73 514.2 74.5C557 76 600 79 642.8 79.5C685.7 80 728.3 78 771.2 76.5C814 75 857 74 878.5 73.5L900 73L900 101L878.5 101C857 101 814 101 771.2 101C728.3 101 685.7 101 642.8 101C600 101 557 101 514.2 101C471.3 101 428.7 101 385.8 101C343 101 300 101 257.2 101C214.3 101 171.7 101 128.8 101C86 101 43 101 21.5 101L0 101Z" fill="#ffffff"></path></svg>

